<svg width="4106" height="4106" viewBox="0 0 4106 4106" fill="none" xmlns="http://www.w3.org/2000/svg">
<g filter="url(#filter0_d)">
<path d="M53 2049.05C53 2049.05 2053 4049.06 2053 2049.05C2053 2049.04 2053 2049.02 2053 2049M2053 2049C2053.04 55.0903 4041.01 2037.08 4052.95 2049M2053 2049C2053 2048.98 2053 2048.96 2053 2048.95C2053 48.9436 53 2048.95 53 2048.95M2053 2049C2053.04 4042.91 4041.01 2060.92 4052.95 2049M2053 2049C2053.02 2049 2053.04 2049 2053.05 2049C4053.06 2049 2053.05 4049 2053.05 4049M2053 2049C59.0903 2048.96 2041.08 60.988 2053 49.054M2053 2049C2052.98 2049 2052.96 2049 2052.95 2049C52.9436 2049 2052.95 4049 2052.95 4049M2053 2049C4046.91 2048.96 2064.92 60.988 2053 49.054M2053 2049C2053.01 2049.02 2053.01 2049.03 2053.02 2049.05C2818.39 3896.81 205.262 2814.42 205.262 2814.42M2053 2049C1290 206.854 3885.12 1277.21 3900.71 1283.65M2053 2049C2052.99 2048.98 2052.99 2048.97 2052.98 2048.95C1287.61 201.189 205.22 2814.32 205.22 2814.32M2053 2049C2816.07 3891.12 3894.24 1299.23 3900.71 1283.65M2053 2049C2053.02 2048.99 2053.03 2048.99 2053.05 2048.98C3900.81 1283.61 2818.42 3896.74 2818.42 3896.74M2053 2049C210.854 2812 1281.21 216.877 1287.65 201.291M2053 2049C2052.98 2049.01 2052.97 2049.01 2052.95 2049.02C205.189 2814.39 2818.32 3896.78 2818.32 3896.78M2053 2049C3895.12 1285.93 1303.23 207.756 1287.65 201.291M2053 2049C2053 2049.02 2053.01 2049.04 2053.01 2049.05C2443.19 4010.63 91.44 2439.23 91.44 2439.23M2053 2049C1664.04 93.3959 4000.49 1649.47 4014.52 1658.83M2053 2049C2053 2048.98 2052.99 2048.96 2052.99 2048.95C1662.81 87.3741 91.4189 2439.13 91.4189 2439.13M2053 2049C2442.03 4004.59 4005.14 1672.85 4014.52 1658.83M2053 2049C2053.02 2049 2053.04 2048.99 2053.05 2048.99C4014.63 1658.81 2443.23 4010.56 2443.23 4010.56M2053 2049C97.3959 2437.96 1653.47 101.512 1662.83 87.4824M2053 2049C2052.98 2049 2052.96 2049.01 2052.95 2049.01C91.3741 2439.19 2443.13 4010.58 2443.13 4010.58M2053 2049C4008.59 1659.97 1676.85 96.8624 1662.83 87.4824M2053 2049C2053.01 2049.01 2053.02 2049.03 2053.03 2049.04C3164.17 3711.99 390.091 3160.19 390.091 3160.19M2053 2049C945.273 391.105 3699.35 934.612 3715.89 937.89M2053 2049C2052.99 2048.99 2052.98 2048.97 2052.97 2048.96C941.828 386.014 390.031 3160.1 390.031 3160.1M2053 2049C3160.79 3706.86 3712.59 954.428 3715.89 937.89M2053 2049C2053.01 2048.99 2053.03 2048.98 2053.04 2048.97C3715.99 937.828 3164.19 3711.91 3164.19 3711.91M2053 2049C395.105 3156.73 938.612 402.649 941.889 386.106M2053 2049C2052.99 2049.01 2052.97 2049.02 2052.95 2049.03C390.014 3160.17 3164.1 3711.97 3164.1 3711.97M2053 2049C3710.86 941.214 958.428 389.408 941.889 386.106M4052.95 2049C4052.98 2049.04 4053 2049.05 4053 2049.05M4052.95 2049C4052.98 2048.96 4053 2048.95 4053 2048.95M2053 49.054C2053.04 49.0181 2053.05 49 2053.05 49M2053 49.054C2052.96 49.0181 2052.95 49 2052.95 49M638.825 3463.2C638.825 3463.2 3467.25 3463.2 2053.04 2048.98C2053.03 2048.97 2053.01 2048.96 2053 2048.94M2053 2048.94C643.118 639.011 3450.31 634.781 3467.18 634.768M2053 2048.94C2052.99 2048.93 2052.97 2048.92 2052.96 2048.91C638.747 634.69 638.748 3463.12 638.748 3463.12M2053 2048.94C3462.93 3458.83 3467.16 651.633 3467.18 634.768M2053 2048.94C2053.01 2048.93 2053.03 2048.92 2053.04 2048.91C3467.25 634.69 3467.25 3463.12 3467.25 3463.12M2053 2048.94C643.068 3458.83 638.837 651.633 638.825 634.768M2053 2048.94C2052.99 2048.96 2052.97 2048.97 2052.96 2048.98C638.747 3463.2 3467.18 3463.2 3467.18 3463.2M2053 2048.94C3462.88 639.011 655.689 634.781 638.825 634.768M3467.18 634.768C3467.23 634.768 3467.25 634.768 3467.25 634.768M3467.18 634.768C3467.18 634.717 3467.18 634.692 3467.18 634.692M638.825 634.768C638.825 634.717 638.825 634.692 638.825 634.692M638.825 634.768C638.774 634.768 638.748 634.768 638.748 634.768M3900.71 1283.65C3900.76 1283.67 3900.78 1283.68 3900.78 1283.68M3900.71 1283.65C3900.73 1283.61 3900.74 1283.58 3900.74 1283.58M1287.65 201.291C1287.67 201.244 1287.68 201.22 1287.68 201.22M1287.65 201.291C1287.61 201.271 1287.58 201.262 1287.58 201.262M1287.66 3896.73C1287.66 3896.73 3900.79 2814.34 2053.03 2048.97C2053.01 2048.96 2052.99 2048.95 2052.98 2048.95M2052.98 2048.95C210.86 1285.88 2802.75 207.704 2818.32 201.239M2052.98 2048.95C2052.96 2048.94 2052.94 2048.93 2052.93 2048.93C205.167 1283.56 1287.56 3896.69 1287.56 3896.69M2052.98 2048.95C3895.12 2811.95 2824.77 216.824 2818.32 201.239M2052.98 2048.95C2052.99 2048.93 2052.99 2048.91 2053 2048.9C2818.37 201.137 3900.76 2814.26 3900.76 2814.26M2052.98 2048.95C1289.91 3891.07 211.735 1299.18 205.269 1283.6M2052.98 2048.95C2052.97 2048.96 2052.96 2048.98 2052.96 2049C1287.59 3896.76 3900.72 2814.36 3900.72 2814.36M2052.98 2048.95C2815.98 206.802 220.855 1277.16 205.269 1283.6M2818.32 201.239C2818.37 201.219 2818.39 201.209 2818.39 201.209M2818.32 201.239C2818.3 201.192 2818.3 201.168 2818.3 201.168M205.269 1283.6C205.25 1283.55 205.24 1283.53 205.24 1283.53M205.269 1283.6C205.222 1283.62 205.199 1283.63 205.199 1283.63M4014.52 1658.83C4014.56 1658.86 4014.58 1658.87 4014.58 1658.87M4014.52 1658.83C4014.55 1658.79 4014.56 1658.77 4014.56 1658.77M1662.83 87.4824C1662.86 87.4402 1662.87 87.4189 1662.87 87.4189M1662.83 87.4824C1662.79 87.4542 1662.77 87.44 1662.77 87.44M941.893 3711.91C941.893 3711.91 3715.97 3160.12 2053.03 2048.97C2053.02 2048.96 2053 2048.95 2052.99 2048.94M2052.99 2048.94C395.134 941.158 3147.56 389.353 3164.1 386.05M2052.99 2048.94C2052.97 2048.93 2052.96 2048.92 2052.94 2048.91C390.003 937.773 941.804 3711.85 941.804 3711.85M2052.99 2048.94C3710.88 3156.67 3167.38 402.593 3164.1 386.05M2052.99 2048.94C2053 2048.93 2053.01 2048.91 2053.02 2048.9C3164.16 385.958 3715.96 3160.04 3715.96 3160.04M2052.99 2048.94C945.202 3706.8 393.397 954.372 390.095 937.834M2052.99 2048.94C2052.98 2048.96 2052.97 2048.97 2052.96 2048.99C941.817 3711.93 3715.9 3160.13 3715.9 3160.13M2052.99 2048.94C3160.72 391.049 406.638 934.556 390.095 937.834M3164.1 386.05C3164.15 386.04 3164.17 386.035 3164.17 386.035M3164.1 386.05C3164.09 386 3164.08 385.975 3164.08 385.975M390.095 937.834C390.085 937.784 390.08 937.759 390.08 937.759M390.095 937.834C390.045 937.844 390.02 937.849 390.02 937.849M3715.89 937.89C3715.94 937.899 3715.97 937.905 3715.97 937.905M3715.89 937.89C3715.9 937.84 3715.91 937.815 3715.91 937.815M941.889 386.106C941.899 386.056 941.904 386.031 941.904 386.031M941.889 386.106C941.84 386.096 941.815 386.091 941.815 386.091M1662.84 4010.53C1662.84 4010.53 4014.59 2439.14 2053.02 2048.96C2053 2048.96 2052.99 2048.96 2052.97 2048.95M2052.97 2048.95C97.3782 1659.93 2429.12 96.8155 2443.14 87.4355M2052.97 2048.95C2052.95 2048.95 2052.93 2048.95 2052.92 2048.94C91.3428 1658.76 1662.73 4010.51 1662.73 4010.51M2052.97 2048.95C4008.57 2437.91 2452.5 101.465 2443.14 87.4355M2052.97 2048.95C2052.97 2048.94 2052.98 2048.92 2052.98 2048.9C2443.16 87.3274 4014.55 2439.08 4014.55 2439.08M2052.97 2048.95C1663.94 4004.54 100.831 1672.8 91.4508 1658.78M2052.97 2048.95C2052.96 2048.97 2052.96 2048.99 2052.96 2049.01C1662.78 4010.58 4014.53 2439.19 4014.53 2439.19M2052.97 2048.95C2441.93 93.3489 105.48 1649.42 91.4508 1658.78M2443.14 87.4355C2443.18 87.4073 2443.2 87.393 2443.2 87.393M2443.14 87.4355C2443.11 87.3933 2443.1 87.372 2443.1 87.372M91.4508 1658.78C91.4226 1658.74 91.4084 1658.72 91.4084 1658.72M91.4508 1658.78C91.4086 1658.81 91.3874 1658.83 91.3874 1658.83M63.0396 2245.49C63.0396 2245.49 2249.44 4039.83 2053.41 2049.46C2053.41 2049.44 2053.41 2049.42 2053.4 2049.4M2053.4 2049.4C1858 65.0919 4030.67 1842.69 4043.72 1853.37M2053.4 2049.4C2053.4 2049.39 2053.4 2049.37 2053.4 2049.35C1857.36 58.9783 63.029 2245.38 63.029 2245.38M2053.4 2049.4C2248.88 4033.71 4033.01 1866.4 4043.72 1853.37M2053.4 2049.4C2053.42 2049.4 2053.44 2049.4 2053.46 2049.4C4043.83 1853.36 2249.49 4039.77 2249.49 4039.77M2053.4 2049.4C69.0918 2244.81 1846.69 72.1326 1857.37 59.088M2053.4 2049.4C2053.39 2049.41 2053.37 2049.41 2053.35 2049.41C62.9781 2245.44 2249.38 4039.78 2249.38 4039.78M2053.4 2049.4C4037.71 1853.93 1870.4 69.7966 1857.37 59.088M2053.4 2049.4C2053.41 2049.42 2053.42 2049.44 2053.43 2049.45C2996.22 3813.3 289.587 2992.24 289.587 2992.24M2053.4 2049.4C1113.51 290.916 3801.06 1101.75 3817.2 1106.64M2053.4 2049.4C2053.4 2049.39 2053.39 2049.37 2053.38 2049.36C1110.58 285.512 289.536 2992.15 289.536 2992.15M2053.4 2049.4C2993.36 3807.86 3812.29 1122.77 3817.2 1106.64M2053.4 2049.4C2053.42 2049.4 2053.44 2049.39 2053.45 2049.38C3817.3 1106.58 2996.24 3813.22 2996.24 3813.22M2053.4 2049.4C294.916 2989.29 1105.75 301.751 1110.64 285.609M2053.4 2049.4C2053.39 2049.41 2053.37 2049.42 2053.36 2049.43C289.511 2992.22 2996.15 3813.27 2996.15 3813.27M2053.4 2049.4C3811.86 1109.45 1126.77 290.517 1110.64 285.609M2053.4 2049.4C2053.41 2049.42 2053.41 2049.44 2053.42 2049.46C2633.99 3963.34 139.539 2630.02 139.539 2630.02M2053.4 2049.4C1474.64 141.341 3952.35 1460.91 3967.23 1468.85M2053.4 2049.4C2053.4 2049.39 2053.39 2049.37 2053.39 2049.35C1472.82 135.469 139.507 2629.92 139.507 2629.92M2053.4 2049.4C2632.24 3957.45 3959.27 1483.72 3967.23 1468.85M2053.4 2049.4C2053.42 2049.4 2053.44 2049.39 2053.46 2049.39C3967.34 1468.82 2634.02 3963.27 2634.02 3963.27M2053.4 2049.4C145.341 2628.17 1464.91 150.454 1472.85 135.575M2053.4 2049.4C2053.39 2049.41 2053.37 2049.41 2053.35 2049.42C139.469 2629.99 2633.92 3963.3 2633.92 3963.3M2053.4 2049.4C3961.45 1470.57 1487.72 143.536 1472.85 135.575M2053.4 2049.4C2053.42 2049.42 2053.43 2049.43 2053.44 2049.45C3322.23 3595.47 507.417 3318.23 507.417 3318.23M2053.4 2049.4C788.509 508.068 3582.6 779.011 3599.38 780.652M2053.4 2049.4C2053.39 2049.39 2053.38 2049.38 2053.37 2049.36C784.581 503.339 507.349 3318.15 507.349 3318.15M2053.4 2049.4C3318.35 3590.69 3597.72 797.434 3599.38 780.652M2053.4 2049.4C2053.42 2049.39 2053.43 2049.38 2053.45 2049.37C3599.47 780.582 3322.23 3595.39 3322.23 3595.39M2053.4 2049.4C512.068 3314.3 783.011 520.21 784.651 503.425M2053.4 2049.4C2053.39 2049.42 2053.38 2049.43 2053.36 2049.44C507.339 3318.23 3322.15 3595.46 3322.15 3595.46M2053.4 2049.4C3594.69 784.453 801.434 505.09 784.651 503.425M4043.72 1853.37C4043.76 1853.41 4043.78 1853.42 4043.78 1853.42M4043.72 1853.37C4043.75 1853.34 4043.77 1853.32 4043.77 1853.32M1857.37 59.088C1857.41 59.0488 1857.42 59.029 1857.42 59.029M1857.37 59.088C1857.34 59.0558 1857.32 59.0396 1857.32 59.0396M784.653 3595.4C784.653 3595.4 3599.46 3318.17 2053.44 2049.38C2053.43 2049.37 2053.41 2049.36 2053.4 2049.35M2053.4 2049.35C512.108 784.397 3305.37 505.034 3322.15 503.368M2053.4 2049.35C2053.38 2049.34 2053.37 2049.32 2053.36 2049.31C507.334 780.525 784.57 3595.33 784.57 3595.33M2053.4 2049.35C3594.73 3314.24 3323.79 520.153 3322.15 503.368M2053.4 2049.35C2053.41 2049.33 2053.42 2049.32 2053.43 2049.31C3322.22 503.283 3599.45 3318.09 3599.45 3318.09M2053.4 2049.35C788.448 3590.64 509.085 797.377 507.419 780.595M2053.4 2049.35C2053.39 2049.36 2053.38 2049.38 2053.36 2049.39C784.576 3595.41 3599.38 3318.18 3599.38 3318.18M2053.4 2049.35C3318.29 508.012 524.204 778.955 507.419 780.595M3322.15 503.368C3322.2 503.363 3322.23 503.361 3322.23 503.361M3322.15 503.368C3322.15 503.318 3322.14 503.292 3322.14 503.292M507.419 780.595C507.414 780.545 507.411 780.519 507.411 780.519M507.419 780.595C507.368 780.6 507.343 780.602 507.343 780.602M3817.2 1106.64C3817.25 1106.65 3817.27 1106.66 3817.27 1106.66M3817.2 1106.64C3817.21 1106.59 3817.22 1106.56 3817.22 1106.56M1110.64 285.609C1110.65 285.56 1110.66 285.536 1110.66 285.536M1110.64 285.609C1110.59 285.594 1110.56 285.587 1110.56 285.587M1472.86 3963.25C1472.86 3963.25 3967.31 2629.94 2053.43 2049.37C2053.41 2049.36 2053.39 2049.36 2053.38 2049.35M2053.38 2049.35C145.335 1470.52 2619.06 143.486 2633.93 135.525M2053.38 2049.35C2053.36 2049.35 2053.34 2049.34 2053.33 2049.34C139.442 1468.77 1472.76 3963.22 1472.76 3963.22M2053.38 2049.35C3961.44 2628.12 2641.87 150.404 2633.93 135.525M2053.38 2049.35C2053.38 2049.34 2053.39 2049.32 2053.39 2049.3C2633.96 135.419 3967.27 2629.87 3967.27 2629.87M2053.38 2049.35C1474.54 3957.4 147.509 1483.67 139.548 1468.8M2053.38 2049.35C2053.37 2049.37 2053.37 2049.39 2053.36 2049.41C1472.79 3963.29 3967.24 2629.97 3967.24 2629.97M2053.38 2049.35C2632.14 141.291 154.427 1460.86 139.548 1468.8M2633.93 135.525C2633.98 135.501 2634 135.489 2634 135.489M2633.93 135.525C2633.91 135.48 2633.89 135.458 2633.89 135.458M139.548 1468.8C139.524 1468.76 139.512 1468.73 139.512 1468.73M139.548 1468.8C139.503 1468.82 139.481 1468.84 139.481 1468.84M3967.23 1468.85C3967.28 1468.87 3967.3 1468.89 3967.3 1468.89M3967.23 1468.85C3967.26 1468.81 3967.27 1468.78 3967.27 1468.78M1472.85 135.575C1472.87 135.53 1472.89 135.507 1472.89 135.507M1472.85 135.575C1472.81 135.551 1472.78 135.539 1472.78 135.539M1110.64 3813.22C1110.64 3813.22 3817.28 2992.17 2053.43 2049.38C2053.42 2049.37 2053.4 2049.36 2053.39 2049.35M2053.39 2049.35C294.933 1109.4 2980.02 290.462 2996.16 285.555M2053.39 2049.35C2053.37 2049.34 2053.36 2049.33 2053.34 2049.32C289.495 1106.53 1110.55 3813.17 1110.55 3813.17M2053.39 2049.35C3811.88 2989.24 3001.04 301.697 2996.16 285.555M2053.39 2049.35C2053.4 2049.33 2053.4 2049.32 2053.41 2049.3C2996.21 285.457 3817.26 2992.1 3817.26 2992.1M2053.39 2049.35C1113.43 3807.8 294.5 1122.72 289.592 1106.58M2053.39 2049.35C2053.38 2049.37 2053.37 2049.38 2053.36 2049.4C1110.57 3813.24 3817.2 2992.19 3817.2 2992.19M2053.39 2049.35C2993.28 290.861 305.735 1101.7 289.592 1106.58M2996.16 285.555C2996.2 285.54 2996.23 285.532 2996.23 285.532M2996.16 285.555C2996.14 285.506 2996.13 285.482 2996.13 285.482M289.592 1106.58C289.578 1106.53 289.57 1106.51 289.57 1106.51M289.592 1106.58C289.544 1106.6 289.519 1106.6 289.519 1106.6M3599.38 780.652C3599.43 780.657 3599.46 780.659 3599.46 780.659M3599.38 780.652C3599.39 780.601 3599.39 780.576 3599.39 780.576M784.651 503.425C784.656 503.374 784.659 503.349 784.659 503.349M784.651 503.425C784.601 503.42 784.575 503.417 784.575 503.417M1857.39 4039.73C1857.39 4039.73 4043.79 2245.4 2053.42 2049.37C2053.4 2049.36 2053.39 2049.36 2053.37 2049.36M2053.37 2049.36C69.0629 1853.89 2236.37 69.7531 2249.4 59.0445M2053.37 2049.36C2053.35 2049.36 2053.33 2049.36 2053.31 2049.35C62.9423 1853.32 1857.28 4039.72 1857.28 4039.72M2053.37 2049.36C4037.68 2244.76 2260.09 72.0891 2249.4 59.0445M2053.37 2049.36C2053.37 2049.34 2053.37 2049.32 2053.37 2049.31C2249.41 58.9348 4043.74 2245.34 4043.74 2245.34M2053.37 2049.36C1857.89 4033.66 73.7606 1866.36 63.052 1853.33M2053.37 2049.36C2053.37 2049.38 2053.36 2049.4 2053.36 2049.41C1857.33 4039.79 4043.73 2245.45 4043.73 2245.45M2053.37 2049.36C2248.77 65.0483 76.0966 1842.64 63.052 1853.33M2249.4 59.0445C2249.44 59.0123 2249.46 58.996 2249.46 58.996M2249.4 59.0445C2249.36 59.0053 2249.35 58.9855 2249.35 58.9855M63.052 1853.33C63.0198 1853.29 63.0036 1853.27 63.0036 1853.27M63.052 1853.33C63.0127 1853.36 62.993 1853.38 62.993 1853.38" stroke="url(#paint0_radial)" stroke-width="2"/>
</g>
<defs>
<filter id="filter0_d" x="0.3125" y="0.292892" width="4105.4" height="4105.4" filterUnits="userSpaceOnUse" color-interpolation-filters="sRGB">
<feFlood flood-opacity="0" result="BackgroundImageFix"/>
<feColorMatrix in="SourceAlpha" type="matrix" values="0 0 0 0 0 0 0 0 0 0 0 0 0 0 0 0 0 0 127 0"/>
<feOffset dy="4"/>
<feGaussianBlur stdDeviation="26"/>
<feColorMatrix type="matrix" values="0 0 0 0 0 0 0 0 0 0 0 0 0 0 0 0 0 0 0.25 0"/>
<feBlend mode="normal" in2="BackgroundImageFix" result="effect1_dropShadow"/>
<feBlend mode="normal" in="SourceGraphic" in2="effect1_dropShadow" result="shape"/>
</filter>
<radialGradient id="paint0_radial" cx="0" cy="0" r="1" gradientUnits="userSpaceOnUse" gradientTransform="translate(2053 2049) rotate(90) scale(2000)">
<stop offset="0.3125" stop-color="#37D829" stop-opacity="0"/>
<stop offset="1" stop-color="#37D829"/>
</radialGradient>
</defs>
</svg>
